<svg width="86" height="12" viewBox="0 0 86 12" fill="none" xmlns="http://www.w3.org/2000/svg">
<path d="M5.776 1.27V2.572H1.646V5.442H4.866V6.744H1.646V11H0.05V1.27H5.776ZM6.72308 6.114C6.72308 5.162 6.94241 4.308 7.38108 3.552C7.82908 2.796 8.43108 2.208 9.18708 1.788C9.95241 1.35867 10.7877 1.144 11.6931 1.144C12.7291 1.144 13.6484 1.40067 14.4511 1.914C15.2631 2.418 15.8511 3.13667 16.2151 4.07H14.2971C14.0451 3.55667 13.6951 3.174 13.2471 2.922C12.7991 2.67 12.2811 2.544 11.6931 2.544C11.0491 2.544 10.4751 2.68867 9.97108 2.978C9.46708 3.26733 9.07041 3.68267 8.78108 4.224C8.50108 4.76533 8.36108 5.39533 8.36108 6.114C8.36108 6.83267 8.50108 7.46267 8.78108 8.004C9.07041 8.54533 9.46708 8.96533 9.97108 9.264C10.4751 9.55333 11.0491 9.698 11.6931 9.698C12.2811 9.698 12.7991 9.572 13.2471 9.32C13.6951 9.068 14.0451 8.68533 14.2971 8.172H16.2151C15.8511 9.10533 15.2631 9.824 14.4511 10.328C13.6484 10.832 12.7291 11.084 11.6931 11.084C10.7784 11.084 9.94308 10.874 9.18708 10.454C8.43108 10.0247 7.82908 9.432 7.38108 8.676C6.94241 7.92 6.72308 7.066 6.72308 6.114ZM27.5859 9.012H23.5119L22.8119 11H21.1459L24.6319 1.256H26.4799L29.9659 11H28.2859L27.5859 9.012ZM27.1379 7.71L25.5559 3.188L23.9599 7.71H27.1379ZM34.2816 11.126C33.675 11.126 33.129 11.0187 32.6436 10.804C32.1676 10.58 31.7896 10.2813 31.5096 9.908C31.2296 9.52533 31.0803 9.10067 31.0616 8.634H32.7136C32.7416 8.96067 32.8956 9.236 33.1756 9.46C33.465 9.67467 33.8243 9.782 34.2536 9.782C34.7016 9.782 35.047 9.698 35.2896 9.53C35.5416 9.35267 35.6676 9.12867 35.6676 8.858C35.6676 8.56867 35.5276 8.354 35.2476 8.214C34.977 8.074 34.543 7.92 33.9456 7.752C33.367 7.59333 32.8956 7.43933 32.5316 7.29C32.1676 7.14067 31.8503 6.912 31.5796 6.604C31.3183 6.296 31.1876 5.89 31.1876 5.386C31.1876 4.97533 31.309 4.602 31.5516 4.266C31.7943 3.92067 32.1396 3.65 32.5876 3.454C33.045 3.258 33.5676 3.16 34.1556 3.16C35.033 3.16 35.7376 3.384 36.2696 3.832C36.811 4.27067 37.1003 4.87267 37.1376 5.638H35.5416C35.5136 5.29267 35.3736 5.01733 35.1216 4.812C34.8696 4.60667 34.529 4.504 34.0996 4.504C33.6796 4.504 33.3576 4.58333 33.1336 4.742C32.9096 4.90067 32.7976 5.11067 32.7976 5.372C32.7976 5.57733 32.8723 5.75 33.0216 5.89C33.171 6.03 33.353 6.142 33.5676 6.226C33.7823 6.30067 34.0996 6.39867 34.5196 6.52C35.0796 6.66933 35.537 6.82333 35.8916 6.982C36.2556 7.13133 36.5683 7.35533 36.8296 7.654C37.091 7.95267 37.2263 8.34933 37.2356 8.844C37.2356 9.28267 37.1143 9.67467 36.8716 10.02C36.629 10.3653 36.2836 10.636 35.8356 10.832C35.397 11.028 34.879 11.126 34.2816 11.126ZM41.7602 11.126C41.1535 11.126 40.6075 11.0187 40.1222 10.804C39.6462 10.58 39.2682 10.2813 38.9882 9.908C38.7082 9.52533 38.5588 9.10067 38.5402 8.634H40.1922C40.2202 8.96067 40.3742 9.236 40.6542 9.46C40.9435 9.67467 41.3028 9.782 41.7322 9.782C42.1802 9.782 42.5255 9.698 42.7682 9.53C43.0202 9.35267 43.1462 9.12867 43.1462 8.858C43.1462 8.56867 43.0062 8.354 42.7262 8.214C42.4555 8.074 42.0215 7.92 41.4242 7.752C40.8455 7.59333 40.3742 7.43933 40.0102 7.29C39.6462 7.14067 39.3288 6.912 39.0582 6.604C38.7968 6.296 38.6662 5.89 38.6662 5.386C38.6662 4.97533 38.7875 4.602 39.0302 4.266C39.2728 3.92067 39.6182 3.65 40.0662 3.454C40.5235 3.258 41.0462 3.16 41.6342 3.16C42.5115 3.16 43.2162 3.384 43.7482 3.832C44.2895 4.27067 44.5788 4.87267 44.6162 5.638H43.0202C42.9922 5.29267 42.8522 5.01733 42.6002 4.812C42.3482 4.60667 42.0075 4.504 41.5782 4.504C41.1582 4.504 40.8362 4.58333 40.6122 4.742C40.3882 4.90067 40.2762 5.11067 40.2762 5.372C40.2762 5.57733 40.3508 5.75 40.5002 5.89C40.6495 6.03 40.8315 6.142 41.0462 6.226C41.2608 6.30067 41.5782 6.39867 41.9982 6.52C42.5582 6.66933 43.0155 6.82333 43.3702 6.982C43.7342 7.13133 44.0468 7.35533 44.3082 7.654C44.5695 7.95267 44.7048 8.34933 44.7142 8.844C44.7142 9.28267 44.5928 9.67467 44.3502 10.02C44.1075 10.3653 43.7622 10.636 43.3142 10.832C42.8755 11.028 42.3575 11.126 41.7602 11.126ZM47.2507 2.264C46.9613 2.264 46.7187 2.166 46.5227 1.97C46.3267 1.774 46.2287 1.53133 46.2287 1.242C46.2287 0.952666 46.3267 0.71 46.5227 0.514C46.7187 0.318 46.9613 0.219999 47.2507 0.219999C47.5307 0.219999 47.7687 0.318 47.9647 0.514C48.1607 0.71 48.2587 0.952666 48.2587 1.242C48.2587 1.53133 48.1607 1.774 47.9647 1.97C47.7687 2.166 47.5307 2.264 47.2507 2.264ZM48.0347 3.286V11H46.4387V3.286H48.0347ZM52.9301 11.126C52.3234 11.126 51.7774 11.0187 51.2921 10.804C50.8161 10.58 50.4381 10.2813 50.1581 9.908C49.8781 9.52533 49.7287 9.10067 49.7101 8.634H51.3621C51.3901 8.96067 51.5441 9.236 51.8241 9.46C52.1134 9.67467 52.4727 9.782 52.9021 9.782C53.3501 9.782 53.6954 9.698 53.9381 9.53C54.1901 9.35267 54.3161 9.12867 54.3161 8.858C54.3161 8.56867 54.1761 8.354 53.8961 8.214C53.6254 8.074 53.1914 7.92 52.5941 7.752C52.0154 7.59333 51.5441 7.43933 51.1801 7.29C50.8161 7.14067 50.4987 6.912 50.2281 6.604C49.9667 6.296 49.8361 5.89 49.8361 5.386C49.8361 4.97533 49.9574 4.602 50.2001 4.266C50.4427 3.92067 50.7881 3.65 51.2361 3.454C51.6934 3.258 52.2161 3.16 52.8041 3.16C53.6814 3.16 54.3861 3.384 54.9181 3.832C55.4594 4.27067 55.7487 4.87267 55.7861 5.638H54.1901C54.1621 5.29267 54.0221 5.01733 53.7701 4.812C53.5181 4.60667 53.1774 4.504 52.7481 4.504C52.3281 4.504 52.0061 4.58333 51.7821 4.742C51.5581 4.90067 51.4461 5.11067 51.4461 5.372C51.4461 5.57733 51.5207 5.75 51.6701 5.89C51.8194 6.03 52.0014 6.142 52.2161 6.226C52.4307 6.30067 52.7481 6.39867 53.1681 6.52C53.7281 6.66933 54.1854 6.82333 54.5401 6.982C54.9041 7.13133 55.2167 7.35533 55.4781 7.654C55.7394 7.95267 55.8747 8.34933 55.8841 8.844C55.8841 9.28267 55.7627 9.67467 55.5201 10.02C55.2774 10.3653 54.9321 10.636 54.4841 10.832C54.0454 11.028 53.5274 11.126 52.9301 11.126ZM59.4706 4.588V8.858C59.4706 9.14733 59.5359 9.35733 59.6666 9.488C59.8066 9.60933 60.0399 9.67 60.3666 9.67H61.3466V11H60.0866C59.3679 11 58.8173 10.832 58.4346 10.496C58.0519 10.16 57.8606 9.614 57.8606 8.858V4.588H56.9506V3.286H57.8606V1.368H59.4706V3.286H61.3466V4.588H59.4706ZM62.2856 7.108C62.2856 6.33333 62.4442 5.64733 62.7616 5.05C63.0882 4.45267 63.5269 3.99067 64.0776 3.664C64.6376 3.328 65.2536 3.16 65.9256 3.16C66.5322 3.16 67.0596 3.28133 67.5076 3.524C67.9649 3.75733 68.3289 4.05133 68.5996 4.406V3.286H70.2096V11H68.5996V9.852C68.3289 10.216 67.9602 10.5193 67.4936 10.762C67.0269 11.0047 66.4949 11.126 65.8976 11.126C65.2349 11.126 64.6282 10.958 64.0776 10.622C63.5269 10.2767 63.0882 9.80067 62.7616 9.194C62.4442 8.578 62.2856 7.88267 62.2856 7.108ZM68.5996 7.136C68.5996 6.604 68.4876 6.142 68.2636 5.75C68.0489 5.358 67.7642 5.05933 67.4096 4.854C67.0549 4.64867 66.6722 4.546 66.2616 4.546C65.8509 4.546 65.4682 4.64867 65.1136 4.854C64.7589 5.05 64.4696 5.344 64.2456 5.736C64.0309 6.11867 63.9236 6.576 63.9236 7.108C63.9236 7.64 64.0309 8.10667 64.2456 8.508C64.4696 8.90933 64.7589 9.21733 65.1136 9.432C65.4776 9.63733 65.8602 9.74 66.2616 9.74C66.6722 9.74 67.0549 9.63733 67.4096 9.432C67.7642 9.22667 68.0489 8.928 68.2636 8.536C68.4876 8.13467 68.5996 7.668 68.5996 7.136ZM76.1979 3.16C76.8045 3.16 77.3459 3.286 77.8219 3.538C78.3072 3.79 78.6852 4.16333 78.9559 4.658C79.2265 5.15267 79.3619 5.75 79.3619 6.45V11H77.7799V6.688C77.7799 5.99733 77.6072 5.47 77.2619 5.106C76.9165 4.73267 76.4452 4.546 75.8479 4.546C75.2505 4.546 74.7745 4.73267 74.4199 5.106C74.0745 5.47 73.9019 5.99733 73.9019 6.688V11H72.3059V3.286H73.9019V4.168C74.1632 3.85067 74.4945 3.60333 74.8959 3.426C75.3065 3.24867 75.7405 3.16 76.1979 3.16ZM83.2597 4.588V8.858C83.2597 9.14733 83.325 9.35733 83.4557 9.488C83.5957 9.60933 83.829 9.67 84.1557 9.67H85.1357V11H83.8757C83.157 11 82.6063 10.832 82.2237 10.496C81.841 10.16 81.6497 9.614 81.6497 8.858V4.588H80.7397V3.286H81.6497V1.368H83.2597V3.286H85.1357V4.588H83.2597Z" fill="black"/>
</svg>
