<svg width="129" height="45" viewBox="0 0 129 45" fill="none" xmlns="http://www.w3.org/2000/svg">
<rect width="129" height="45" fill="#B4B4B4"/>
<path d="M12.776 17.27V18.572H8.646V21.442H11.866V22.744H8.646V27H7.05V17.27H12.776ZM13.7231 22.114C13.7231 21.162 13.9424 20.308 14.3811 19.552C14.8291 18.796 15.4311 18.208 16.1871 17.788C16.9524 17.3587 17.7877 17.144 18.6931 17.144C19.7291 17.144 20.6484 17.4007 21.4511 17.914C22.2631 18.418 22.8511 19.1367 23.2151 20.07H21.2971C21.0451 19.5567 20.6951 19.174 20.2471 18.922C19.7991 18.67 19.2811 18.544 18.6931 18.544C18.0491 18.544 17.4751 18.6887 16.9711 18.978C16.4671 19.2673 16.0704 19.6827 15.7811 20.224C15.5011 20.7653 15.3611 21.3953 15.3611 22.114C15.3611 22.8327 15.5011 23.4627 15.7811 24.004C16.0704 24.5453 16.4671 24.9653 16.9711 25.264C17.4751 25.5533 18.0491 25.698 18.6931 25.698C19.2811 25.698 19.7991 25.572 20.2471 25.32C20.6951 25.068 21.0451 24.6853 21.2971 24.172H23.2151C22.8511 25.1053 22.2631 25.824 21.4511 26.328C20.6484 26.832 19.7291 27.084 18.6931 27.084C17.7784 27.084 16.9431 26.874 16.1871 26.454C15.4311 26.0247 14.8291 25.432 14.3811 24.676C13.9424 23.92 13.7231 23.066 13.7231 22.114ZM34.5859 25.012H30.5119L29.8119 27H28.1459L31.6319 17.256H33.4799L36.9659 27H35.2859L34.5859 25.012ZM34.1379 23.71L32.5559 19.188L30.9599 23.71H34.1379ZM41.2816 27.126C40.675 27.126 40.129 27.0187 39.6436 26.804C39.1676 26.58 38.7896 26.2813 38.5096 25.908C38.2296 25.5253 38.0803 25.1007 38.0616 24.634H39.7136C39.7416 24.9607 39.8956 25.236 40.1756 25.46C40.465 25.6747 40.8243 25.782 41.2536 25.782C41.7016 25.782 42.047 25.698 42.2896 25.53C42.5416 25.3527 42.6676 25.1287 42.6676 24.858C42.6676 24.5687 42.5276 24.354 42.2476 24.214C41.977 24.074 41.543 23.92 40.9456 23.752C40.367 23.5933 39.8956 23.4393 39.5316 23.29C39.1676 23.1407 38.8503 22.912 38.5796 22.604C38.3183 22.296 38.1876 21.89 38.1876 21.386C38.1876 20.9753 38.309 20.602 38.5516 20.266C38.7943 19.9207 39.1396 19.65 39.5876 19.454C40.045 19.258 40.5676 19.16 41.1556 19.16C42.033 19.16 42.7376 19.384 43.2696 19.832C43.811 20.2707 44.1003 20.8727 44.1376 21.638H42.5416C42.5136 21.2927 42.3736 21.0173 42.1216 20.812C41.8696 20.6067 41.529 20.504 41.0996 20.504C40.6796 20.504 40.3576 20.5833 40.1336 20.742C39.9096 20.9007 39.7976 21.1107 39.7976 21.372C39.7976 21.5773 39.8723 21.75 40.0216 21.89C40.171 22.03 40.353 22.142 40.5676 22.226C40.7823 22.3007 41.0996 22.3987 41.5196 22.52C42.0796 22.6693 42.537 22.8233 42.8916 22.982C43.2556 23.1313 43.5683 23.3553 43.8296 23.654C44.091 23.9527 44.2263 24.3493 44.2356 24.844C44.2356 25.2827 44.1143 25.6747 43.8716 26.02C43.629 26.3653 43.2836 26.636 42.8356 26.832C42.397 27.028 41.879 27.126 41.2816 27.126ZM48.7602 27.126C48.1535 27.126 47.6075 27.0187 47.1222 26.804C46.6462 26.58 46.2682 26.2813 45.9882 25.908C45.7082 25.5253 45.5588 25.1007 45.5402 24.634H47.1922C47.2202 24.9607 47.3742 25.236 47.6542 25.46C47.9435 25.6747 48.3028 25.782 48.7322 25.782C49.1802 25.782 49.5255 25.698 49.7682 25.53C50.0202 25.3527 50.1462 25.1287 50.1462 24.858C50.1462 24.5687 50.0062 24.354 49.7262 24.214C49.4555 24.074 49.0215 23.92 48.4242 23.752C47.8455 23.5933 47.3742 23.4393 47.0102 23.29C46.6462 23.1407 46.3288 22.912 46.0582 22.604C45.7968 22.296 45.6662 21.89 45.6662 21.386C45.6662 20.9753 45.7875 20.602 46.0302 20.266C46.2728 19.9207 46.6182 19.65 47.0662 19.454C47.5235 19.258 48.0462 19.16 48.6342 19.16C49.5115 19.16 50.2162 19.384 50.7482 19.832C51.2895 20.2707 51.5788 20.8727 51.6162 21.638H50.0202C49.9922 21.2927 49.8522 21.0173 49.6002 20.812C49.3482 20.6067 49.0075 20.504 48.5782 20.504C48.1582 20.504 47.8362 20.5833 47.6122 20.742C47.3882 20.9007 47.2762 21.1107 47.2762 21.372C47.2762 21.5773 47.3508 21.75 47.5002 21.89C47.6495 22.03 47.8315 22.142 48.0462 22.226C48.2608 22.3007 48.5782 22.3987 48.9982 22.52C49.5582 22.6693 50.0155 22.8233 50.3702 22.982C50.7342 23.1313 51.0468 23.3553 51.3082 23.654C51.5695 23.9527 51.7048 24.3493 51.7142 24.844C51.7142 25.2827 51.5928 25.6747 51.3502 26.02C51.1075 26.3653 50.7622 26.636 50.3142 26.832C49.8755 27.028 49.3575 27.126 48.7602 27.126ZM54.2507 18.264C53.9613 18.264 53.7187 18.166 53.5227 17.97C53.3267 17.774 53.2287 17.5313 53.2287 17.242C53.2287 16.9527 53.3267 16.71 53.5227 16.514C53.7187 16.318 53.9613 16.22 54.2507 16.22C54.5307 16.22 54.7687 16.318 54.9647 16.514C55.1607 16.71 55.2587 16.9527 55.2587 17.242C55.2587 17.5313 55.1607 17.774 54.9647 17.97C54.7687 18.166 54.5307 18.264 54.2507 18.264ZM55.0347 19.286V27H53.4387V19.286H55.0347ZM59.9301 27.126C59.3234 27.126 58.7774 27.0187 58.2921 26.804C57.8161 26.58 57.4381 26.2813 57.1581 25.908C56.8781 25.5253 56.7287 25.1007 56.7101 24.634H58.3621C58.3901 24.9607 58.5441 25.236 58.8241 25.46C59.1134 25.6747 59.4727 25.782 59.9021 25.782C60.3501 25.782 60.6954 25.698 60.9381 25.53C61.1901 25.3527 61.3161 25.1287 61.3161 24.858C61.3161 24.5687 61.1761 24.354 60.8961 24.214C60.6254 24.074 60.1914 23.92 59.5941 23.752C59.0154 23.5933 58.5441 23.4393 58.1801 23.29C57.8161 23.1407 57.4987 22.912 57.2281 22.604C56.9667 22.296 56.8361 21.89 56.8361 21.386C56.8361 20.9753 56.9574 20.602 57.2001 20.266C57.4427 19.9207 57.7881 19.65 58.2361 19.454C58.6934 19.258 59.2161 19.16 59.8041 19.16C60.6814 19.16 61.3861 19.384 61.9181 19.832C62.4594 20.2707 62.7487 20.8727 62.7861 21.638H61.1901C61.1621 21.2927 61.0221 21.0173 60.7701 20.812C60.5181 20.6067 60.1774 20.504 59.7481 20.504C59.3281 20.504 59.0061 20.5833 58.7821 20.742C58.5581 20.9007 58.4461 21.1107 58.4461 21.372C58.4461 21.5773 58.5207 21.75 58.6701 21.89C58.8194 22.03 59.0014 22.142 59.2161 22.226C59.4307 22.3007 59.7481 22.3987 60.1681 22.52C60.7281 22.6693 61.1854 22.8233 61.5401 22.982C61.9041 23.1313 62.2167 23.3553 62.4781 23.654C62.7394 23.9527 62.8747 24.3493 62.8841 24.844C62.8841 25.2827 62.7627 25.6747 62.5201 26.02C62.2774 26.3653 61.9321 26.636 61.4841 26.832C61.0454 27.028 60.5274 27.126 59.9301 27.126ZM66.4706 20.588V24.858C66.4706 25.1473 66.5359 25.3573 66.6666 25.488C66.8066 25.6093 67.0399 25.67 67.3666 25.67H68.3466V27H67.0866C66.3679 27 65.8173 26.832 65.4346 26.496C65.0519 26.16 64.8606 25.614 64.8606 24.858V20.588H63.9506V19.286H64.8606V17.368H66.4706V19.286H68.3466V20.588H66.4706ZM69.2856 23.108C69.2856 22.3333 69.4442 21.6473 69.7616 21.05C70.0882 20.4527 70.5269 19.9907 71.0776 19.664C71.6376 19.328 72.2536 19.16 72.9256 19.16C73.5322 19.16 74.0596 19.2813 74.5076 19.524C74.9649 19.7573 75.3289 20.0513 75.5996 20.406V19.286H77.2096V27H75.5996V25.852C75.3289 26.216 74.9602 26.5193 74.4936 26.762C74.0269 27.0047 73.4949 27.126 72.8976 27.126C72.2349 27.126 71.6282 26.958 71.0776 26.622C70.5269 26.2767 70.0882 25.8007 69.7616 25.194C69.4442 24.578 69.2856 23.8827 69.2856 23.108ZM75.5996 23.136C75.5996 22.604 75.4876 22.142 75.2636 21.75C75.0489 21.358 74.7642 21.0593 74.4096 20.854C74.0549 20.6487 73.6722 20.546 73.2616 20.546C72.8509 20.546 72.4682 20.6487 72.1136 20.854C71.7589 21.05 71.4696 21.344 71.2456 21.736C71.0309 22.1187 70.9236 22.576 70.9236 23.108C70.9236 23.64 71.0309 24.1067 71.2456 24.508C71.4696 24.9093 71.7589 25.2173 72.1136 25.432C72.4776 25.6373 72.8602 25.74 73.2616 25.74C73.6722 25.74 74.0549 25.6373 74.4096 25.432C74.7642 25.2267 75.0489 24.928 75.2636 24.536C75.4876 24.1347 75.5996 23.668 75.5996 23.136ZM83.1979 19.16C83.8045 19.16 84.3459 19.286 84.8219 19.538C85.3072 19.79 85.6852 20.1633 85.9559 20.658C86.2265 21.1527 86.3619 21.75 86.3619 22.45V27H84.7799V22.688C84.7799 21.9973 84.6072 21.47 84.2619 21.106C83.9165 20.7327 83.4452 20.546 82.8479 20.546C82.2505 20.546 81.7745 20.7327 81.4199 21.106C81.0745 21.47 80.9019 21.9973 80.9019 22.688V27H79.3059V19.286H80.9019V20.168C81.1632 19.8507 81.4945 19.6033 81.8959 19.426C82.3065 19.2487 82.7405 19.16 83.1979 19.16ZM90.2597 20.588V24.858C90.2597 25.1473 90.325 25.3573 90.4557 25.488C90.5957 25.6093 90.829 25.67 91.1557 25.67H92.1357V27H90.8757C90.157 27 89.6063 26.832 89.2237 26.496C88.841 26.16 88.6497 25.614 88.6497 24.858V20.588H87.7397V19.286H88.6497V17.368H90.2597V19.286H92.1357V20.588H90.2597Z" fill="black"/>
</svg>
